<svg xmlns="http://www.w3.org/2000/svg" viewBox="0 0 800 420" font-family="Segoe UI, sans-serif">
<rect width="800" height="420" fill="#ffffff" rx="8"/>
<text x="64" y="30" fill="#1f2328" font-size="17" font-weight="700">★ Star History — timoncool/ACE-Step-Studio</text>
<text x="776" y="30" fill="#1f2328" font-size="14" text-anchor="end">363 stars · updated 2026-09-28</text>
<line x1="64" y1="364.0" x2="776" y2="364.0" stroke="#d1d9e0" stroke-width="1"/><text x="54" y="368.0" fill="#1f2328" font-size="13" text-anchor="end">0</text><line x1="64" y1="284.8" x2="776" y2="284.8" stroke="#d1d9e0" stroke-width="1"/><text x="54" y="288.8" fill="#1f2328" font-size="13" text-anchor="end">91</text><line x1="64" y1="205.6" x2="776" y2="205.6" stroke="#d1d9e0" stroke-width="1"/><text x="54" y="209.6" fill="#1f2328" font-size="13" text-anchor="end">182</text><line x1="64" y1="127.2" x2="776" y2="127.2" stroke="#d1d9e0" stroke-width="1"/><text x="54" y="131.2" fill="#1f2328" font-size="13" text-anchor="end">272</text><line x1="64" y1="48.0" x2="776" y2="48.0" stroke="#d1d9e0" stroke-width="1"/><text x="54" y="52.0" fill="#1f2328" font-size="13" text-anchor="end">363</text>
<path d="M64.0,364.0 L64.0,363.1 L64.4,362.3 L69.6,361.4 L70.7,360.5 L74.6,359.6 L74.8,358.8 L74.8,357.9 L74.9,357.0 L74.9,356.2 L75.0,355.3 L75.1,354.4 L75.2,353.6 L75.4,352.7 L75.5,351.8 L75.6,350.9 L75.7,350.1 L75.9,349.2 L76.3,348.3 L76.5,347.5 L77.2,346.6 L77.6,345.7 L78.4,344.8 L78.5,344.0 L79.0,343.1 L79.1,342.2 L80.3,341.4 L80.5,340.5 L81.0,339.6 L81.0,338.8 L81.7,337.9 L82.2,337.0 L82.6,336.1 L83.8,335.3 L86.3,334.4 L88.9,333.5 L89.1,332.7 L89.6,331.8 L92.8,330.9 L95.8,330.0 L96.0,329.2 L100.5,328.3 L101.0,327.4 L101.8,326.6 L102.3,325.7 L104.6,324.8 L104.8,324.0 L104.8,323.1 L104.9,322.2 L105.0,321.3 L105.0,320.5 L105.1,319.6 L105.2,318.7 L105.2,317.9 L105.3,317.0 L105.4,316.1 L105.5,315.3 L105.5,314.4 L105.5,313.5 L105.5,312.6 L105.6,311.8 L105.6,310.9 L105.6,310.0 L105.7,309.2 L105.7,308.3 L105.8,307.4 L105.9,306.5 L106.0,305.7 L106.0,304.8 L106.0,303.9 L106.4,303.1 L106.4,302.2 L106.6,301.3 L106.6,300.5 L106.8,299.6 L107.4,298.7 L107.5,297.8 L107.7,297.0 L108.3,296.1 L108.5,295.2 L108.5,294.4 L108.7,293.5 L108.9,292.6 L109.2,291.7 L109.3,290.9 L109.4,290.0 L109.5,289.1 L109.6,288.3 L109.9,287.4 L110.3,286.5 L110.4,285.7 L111.7,284.8 L111.7,283.9 L112.2,283.0 L112.2,282.2 L112.3,281.3 L112.4,280.4 L112.7,279.6 L112.7,278.7 L113.1,277.8 L113.3,276.9 L113.3,276.1 L113.6,275.2 L113.9,274.3 L114.1,273.5 L114.1,272.6 L114.2,271.7 L114.2,270.9 L114.3,270.0 L114.5,269.1 L114.6,268.2 L115.7,267.4 L116.9,266.5 L117.7,265.6 L118.2,264.8 L119.6,263.9 L121.3,263.0 L121.6,262.1 L121.8,261.3 L123.9,260.4 L124.0,259.5 L124.9,258.7 L125.8,257.8 L125.8,256.9 L125.9,256.1 L126.5,255.2 L127.5,254.3 L127.6,253.4 L128.4,252.6 L130.7,251.7 L130.8,250.8 L131.9,250.0 L134.6,249.1 L140.0,248.2 L140.0,247.3 L145.5,246.5 L146.9,245.6 L147.4,244.7 L149.2,243.9 L156.0,243.0 L159.6,242.1 L163.1,241.3 L163.7,240.4 L168.7,239.5 L173.9,238.6 L175.5,237.8 L178.6,236.9 L185.6,236.0 L187.1,235.2 L190.1,234.3 L196.2,233.4 L197.1,232.6 L199.7,231.7 L201.2,230.8 L211.2,229.9 L213.8,229.1 L217.0,228.2 L223.0,227.3 L224.8,226.5 L227.8,225.6 L230.2,224.7 L231.3,223.8 L232.4,223.0 L243.6,222.1 L243.8,221.2 L251.1,220.4 L253.8,219.5 L262.2,218.6 L265.3,217.8 L267.8,216.9 L268.5,216.0 L272.2,215.1 L290.3,214.3 L295.9,213.4 L296.8,212.5 L299.8,211.7 L300.1,210.8 L305.8,209.9 L307.7,209.0 L309.8,208.2 L310.2,207.3 L314.0,206.4 L318.0,205.6 L319.4,204.7 L324.1,203.8 L324.3,203.0 L326.4,202.1 L329.2,201.2 L334.9,200.3 L339.0,199.5 L346.8,198.6 L351.6,197.7 L356.8,196.9 L363.5,196.0 L369.0,195.1 L371.3,194.2 L371.7,193.4 L372.4,192.5 L374.7,191.6 L380.8,190.8 L406.2,189.9 L422.1,189.0 L425.4,188.2 L426.2,187.3 L426.2,186.4 L426.4,185.5 L426.4,184.7 L426.5,183.8 L426.5,182.9 L426.6,182.1 L426.6,181.2 L426.7,180.3 L426.7,179.4 L426.9,178.6 L427.0,177.7 L427.0,176.8 L427.2,176.0 L427.2,175.1 L427.3,174.2 L427.4,173.4 L427.4,172.5 L427.5,171.6 L427.5,170.7 L427.9,169.9 L428.1,169.0 L428.3,168.1 L428.3,167.3 L428.4,166.4 L428.4,165.5 L428.9,164.7 L429.4,163.8 L429.7,162.9 L430.2,162.0 L432.6,161.2 L436.9,160.3 L437.7,159.4 L438.0,158.6 L441.4,157.7 L442.4,156.8 L448.1,155.9 L453.4,155.1 L454.1,154.2 L454.9,153.3 L461.5,152.5 L463.0,151.6 L464.7,150.7 L465.6,149.9 L473.9,149.0 L478.2,148.1 L478.5,147.2 L479.3,146.4 L479.4,145.5 L480.1,144.6 L480.4,143.8 L480.5,142.9 L480.7,142.0 L480.9,141.1 L481.3,140.3 L481.4,139.4 L481.5,138.5 L481.6,137.7 L481.8,136.8 L482.5,135.9 L482.5,135.1 L482.9,134.2 L483.0,133.3 L484.3,132.4 L484.8,131.6 L484.9,130.7 L485.0,129.8 L485.3,129.0 L486.8,128.1 L488.6,127.2 L489.8,126.3 L496.8,125.5 L497.2,124.6 L497.7,123.7 L502.4,122.9 L507.2,122.0 L507.2,121.1 L509.8,120.3 L511.2,119.4 L511.5,118.5 L514.0,117.6 L514.1,116.8 L515.1,115.9 L518.9,115.0 L520.6,114.2 L524.6,113.3 L534.7,112.4 L537.0,111.5 L539.6,110.7 L541.3,109.8 L541.9,108.9 L542.4,108.1 L543.6,107.2 L557.4,106.3 L558.6,105.5 L562.0,104.6 L563.3,103.7 L563.7,102.8 L570.0,102.0 L573.5,101.1 L574.4,100.2 L586.4,99.4 L587.8,98.5 L602.7,97.6 L602.7,96.7 L611.0,95.9 L611.6,95.0 L617.3,94.1 L619.9,93.3 L625.4,92.4 L632.2,91.5 L632.2,90.7 L636.2,89.8 L637.3,88.9 L640.1,88.0 L640.7,87.2 L640.8,86.3 L647.0,85.4 L649.4,84.6 L651.0,83.7 L661.8,82.8 L662.5,82.0 L664.9,81.1 L673.3,80.2 L675.0,79.3 L676.1,78.5 L685.1,77.6 L685.2,76.7 L686.2,75.9 L688.1,75.0 L688.2,74.1 L694.7,73.2 L706.3,72.4 L721.0,71.5 L723.0,70.6 L725.5,69.8 L754.6,68.9 L761.3,68.0 L764.4,67.2 L765.1,66.3 L768.2,65.4 L768.4,64.5 L769.3,63.7 L769.4,62.8 L769.4,61.9 L769.5,61.1 L769.5,60.2 L769.7,59.3 L769.8,58.4 L770.2,57.6 L770.8,56.7 L771.0,55.8 L771.1,55.0 L771.3,54.1 L772.2,53.2 L772.3,52.4 L773.2,51.5 L774.5,50.6 L774.9,49.7 L776.0,48.9 L776.0,48.0 L776.0,48.0" fill="none" stroke="#0969da" stroke-width="2.5" stroke-linejoin="round"/>
<circle cx="776.0" cy="48.0" r="4" fill="#0969da"/>
<text x="64.0" y="388" fill="#1f2328" font-size="13" text-anchor="middle">Apr 11, 2026</text><text x="301.3" y="388" fill="#1f2328" font-size="13" text-anchor="middle">Jun 07, 2026</text><text x="538.7" y="388" fill="#1f2328" font-size="13" text-anchor="middle">Aug 03, 2026</text><text x="776.0" y="388" fill="#1f2328" font-size="13" text-anchor="middle">Sep 28, 2026</text>
</svg>