<svg xmlns="http://www.w3.org/2000/svg" viewBox="0 0 800 420" font-family="Segoe UI, sans-serif">
<rect width="800" height="420" fill="#0d1117" rx="8"/>
<text x="64" y="30" fill="#e6edf3" font-size="17" font-weight="700">★ Star History — timoncool/ACE-Step-Studio</text>
<text x="776" y="30" fill="#e6edf3" font-size="14" text-anchor="end">366 stars · updated 2026-09-30</text>
<line x1="64" y1="364.0" x2="776" y2="364.0" stroke="#30363d" stroke-width="1"/><text x="54" y="368.0" fill="#e6edf3" font-size="13" text-anchor="end">0</text><line x1="64" y1="284.6" x2="776" y2="284.6" stroke="#30363d" stroke-width="1"/><text x="54" y="288.6" fill="#e6edf3" font-size="13" text-anchor="end">92</text><line x1="64" y1="206.0" x2="776" y2="206.0" stroke="#30363d" stroke-width="1"/><text x="54" y="210.0" fill="#e6edf3" font-size="13" text-anchor="end">183</text><line x1="64" y1="127.4" x2="776" y2="127.4" stroke="#30363d" stroke-width="1"/><text x="54" y="131.4" fill="#e6edf3" font-size="13" text-anchor="end">274</text><line x1="64" y1="48.0" x2="776" y2="48.0" stroke="#30363d" stroke-width="1"/><text x="54" y="52.0" fill="#e6edf3" font-size="13" text-anchor="end">366</text>
<path d="M64.0,364.0 L64.0,363.1 L64.4,362.3 L69.5,361.4 L70.7,360.5 L74.5,359.7 L74.7,358.8 L74.8,358.0 L74.8,357.1 L74.8,356.2 L74.9,355.4 L75.0,354.5 L75.1,353.6 L75.3,352.8 L75.4,351.9 L75.5,351.0 L75.6,350.2 L75.8,349.3 L76.2,348.5 L76.4,347.6 L77.1,346.7 L77.5,345.9 L78.3,345.0 L78.4,344.1 L78.9,343.3 L79.0,342.4 L80.2,341.6 L80.4,340.7 L80.8,339.8 L80.9,339.0 L81.5,338.1 L82.1,337.2 L82.5,336.4 L83.6,335.5 L86.1,334.6 L88.6,333.8 L88.9,332.9 L89.3,332.1 L92.6,331.2 L95.5,330.3 L95.8,329.5 L100.2,328.6 L100.7,327.7 L101.5,326.9 L101.9,326.0 L104.2,325.1 L104.4,324.3 L104.5,323.4 L104.5,322.6 L104.6,321.7 L104.6,320.8 L104.8,320.0 L104.8,319.1 L104.9,318.2 L104.9,317.4 L105.0,316.5 L105.1,315.7 L105.1,314.8 L105.1,313.9 L105.1,313.1 L105.2,312.2 L105.3,311.3 L105.3,310.5 L105.3,309.6 L105.3,308.7 L105.5,307.9 L105.6,307.0 L105.6,306.2 L105.7,305.3 L105.7,304.4 L106.0,303.6 L106.0,302.7 L106.3,301.8 L106.3,301.0 L106.5,300.1 L107.0,299.2 L107.1,298.4 L107.3,297.5 L107.9,296.7 L108.1,295.8 L108.1,294.9 L108.3,294.1 L108.5,293.2 L108.8,292.3 L108.9,291.5 L109.0,290.6 L109.1,289.7 L109.2,288.9 L109.4,288.0 L109.9,287.2 L110.0,286.3 L111.2,285.4 L111.3,284.6 L111.8,283.7 L111.8,282.8 L111.8,282.0 L111.9,281.1 L112.2,280.3 L112.3,279.4 L112.7,278.5 L112.8,277.7 L112.8,276.8 L113.2,275.9 L113.5,275.1 L113.7,274.2 L113.7,273.3 L113.8,272.5 L113.8,271.6 L113.8,270.8 L114.1,269.9 L114.1,269.0 L115.2,268.2 L116.4,267.3 L117.3,266.4 L117.7,265.6 L119.1,264.7 L120.8,263.8 L121.1,263.0 L121.3,262.1 L123.3,261.3 L123.5,260.4 L124.4,259.5 L125.2,258.7 L125.3,257.8 L125.3,256.9 L125.9,256.1 L127.0,255.2 L127.0,254.3 L127.9,253.5 L130.1,252.6 L130.2,251.8 L131.3,250.9 L134.0,250.0 L139.3,249.2 L139.3,248.3 L144.7,247.4 L146.2,246.6 L146.7,245.7 L148.4,244.9 L155.2,244.0 L158.8,243.1 L162.2,242.3 L162.9,241.4 L167.7,240.5 L173.0,239.7 L174.5,238.8 L177.6,237.9 L184.6,237.1 L186.1,236.2 L189.0,235.4 L195.1,234.5 L196.0,233.6 L198.5,232.8 L200.0,231.9 L209.9,231.0 L212.5,230.2 L215.6,229.3 L221.6,228.4 L223.4,227.6 L226.4,226.7 L228.8,225.9 L229.8,225.0 L230.9,224.1 L242.0,223.3 L242.2,222.4 L249.5,221.5 L252.1,220.7 L260.5,219.8 L263.6,219.0 L266.0,218.1 L266.7,217.2 L270.4,216.4 L288.3,215.5 L293.9,214.6 L294.8,213.8 L297.8,212.9 L298.0,212.0 L303.6,211.2 L305.6,210.3 L307.7,209.5 L308.0,208.6 L311.8,207.7 L315.8,206.9 L317.1,206.0 L321.8,205.1 L322.0,204.3 L324.1,203.4 L326.9,202.5 L332.5,201.7 L336.5,200.8 L344.3,200.0 L349.0,199.1 L354.2,198.2 L360.9,197.4 L366.3,196.5 L368.6,195.6 L369.0,194.8 L369.7,193.9 L371.9,193.0 L378.0,192.2 L403.2,191.3 L418.9,190.5 L422.2,189.6 L423.0,188.7 L423.1,187.9 L423.3,187.0 L423.3,186.1 L423.3,185.3 L423.3,184.4 L423.4,183.6 L423.4,182.7 L423.5,181.8 L423.5,181.0 L423.8,180.1 L423.8,179.2 L423.8,178.4 L424.0,177.5 L424.0,176.6 L424.1,175.8 L424.2,174.9 L424.2,174.1 L424.3,173.2 L424.3,172.3 L424.7,171.5 L424.9,170.6 L425.1,169.7 L425.1,168.9 L425.2,168.0 L425.2,167.1 L425.7,166.3 L426.2,165.4 L426.5,164.6 L427.0,163.7 L429.4,162.8 L433.6,162.0 L434.4,161.1 L434.7,160.2 L438.0,159.4 L439.1,158.5 L444.7,157.7 L450.0,156.8 L450.7,155.9 L451.4,155.1 L458.0,154.2 L459.5,153.3 L461.2,152.5 L462.0,151.6 L470.3,150.7 L474.5,149.9 L474.9,149.0 L475.7,148.2 L475.7,147.3 L476.4,146.4 L476.8,145.6 L476.9,144.7 L477.0,143.8 L477.2,143.0 L477.7,142.1 L477.8,141.2 L477.8,140.4 L477.9,139.5 L478.1,138.7 L478.8,137.8 L478.8,136.9 L479.2,136.1 L479.3,135.2 L480.6,134.3 L481.1,133.5 L481.2,132.6 L481.3,131.7 L481.6,130.9 L483.1,130.0 L484.8,129.2 L486.0,128.3 L493.0,127.4 L493.4,126.6 L493.9,125.7 L498.6,124.8 L503.3,124.0 L503.3,123.1 L505.9,122.3 L507.3,121.4 L507.6,120.5 L510.0,119.7 L510.2,118.8 L511.2,117.9 L514.9,117.1 L516.6,116.2 L520.6,115.3 L530.6,114.5 L532.8,113.6 L535.4,112.8 L537.1,111.9 L537.7,111.0 L538.2,110.2 L539.4,109.3 L553.1,108.4 L554.3,107.6 L557.6,106.7 L558.9,105.8 L559.3,105.0 L565.6,104.1 L569.0,103.3 L570.0,102.4 L581.8,101.5 L583.2,100.7 L598.0,99.8 L598.0,98.9 L606.2,98.1 L606.7,97.2 L612.4,96.3 L615.0,95.5 L620.5,94.6 L627.2,93.8 L627.2,92.9 L631.2,92.0 L632.3,91.2 L635.0,90.3 L635.6,89.4 L635.7,88.6 L641.8,87.7 L644.3,86.9 L645.9,86.0 L656.6,85.1 L657.3,84.3 L659.7,83.4 L667.9,82.5 L669.6,81.7 L670.7,80.8 L679.6,79.9 L679.8,79.1 L680.7,78.2 L682.6,77.4 L682.7,76.5 L689.2,75.6 L700.7,74.8 L715.2,73.9 L717.2,73.0 L719.7,72.2 L748.5,71.3 L755.2,70.4 L758.3,69.6 L758.9,68.7 L762.0,67.9 L762.2,67.0 L763.1,66.1 L763.2,65.3 L763.2,64.4 L763.3,63.5 L763.3,62.7 L763.5,61.8 L763.6,61.0 L764.0,60.1 L764.6,59.2 L764.8,58.4 L764.9,57.5 L765.1,56.6 L766.0,55.8 L766.0,54.9 L767.0,54.0 L768.3,53.2 L768.6,52.3 L769.7,51.5 L769.7,50.6 L773.6,49.7 L774.3,48.9 L776.0,48.0 L776.0,48.0" fill="none" stroke="#4f8ff7" stroke-width="2.5" stroke-linejoin="round"/>
<circle cx="776.0" cy="48.0" r="4" fill="#4f8ff7"/>
<text x="64.0" y="388" fill="#e6edf3" font-size="13" text-anchor="middle">Apr 11, 2026</text><text x="301.3" y="388" fill="#e6edf3" font-size="13" text-anchor="middle">Jun 07, 2026</text><text x="538.7" y="388" fill="#e6edf3" font-size="13" text-anchor="middle">Aug 04, 2026</text><text x="776.0" y="388" fill="#e6edf3" font-size="13" text-anchor="middle">Sep 30, 2026</text>
</svg>